# xmcd
#
# Track frame offsets:
#	150
#	12754
#	29669
#	38344
#	58047
#	67982
#	80260
#	98739
#	114612
#	131900
#	146028
#	161028
#	174059
#	188137
#	205068
#	216758
#	227546
#	237999
#	247287
#	262388
#	276287
#	290512
#	302019
#	315060
#	324830
#	335867
#
# Disc length: 4607 seconds
#
# Revision: 1
# Processed by: cddbd v1.5.2PL0 Copyright (c) Steve Scherf et al.
# Submitted via: EZCDAudioConverter 1.0.4.1
#
DISCID=7811fd1a
DTITLE=Tapio Heinonen - En Kadu Mit‰‰n - Kaikki Levytykset CD01
DYEAR=1970
DGENRE=Suomalainen
TTITLE0=Eilen kun m‰ tiennyt en
TTITLE1=Don juan
TTITLE2=Monta vuotta sitten kello kymmenen
TTITLE3=Samanlainen onni
TTITLE4=Min‰ tied‰n sen sill‰ rakjastan vain sinua
TTITLE5=Julian grimau
TTITLE6=Danny boy
TTITLE7=Palaan sua hakemaan
TTITLE8=Jossain on kukka ruusun
TTITLE9=Marie marie
TTITLE10=Aina l‰htee juna jonnekin
TTITLE11=N‰hd‰ saa ken tiet‰‰ mit‰ tahtoo
TTITLE12=Rakkaustarina
TTITLE13=Rosie romero
TTITLE14=Kyynelhelmet
TTITLE15=Nyt pois nyt pois
TTITLE16=Onni suurimmillaan
TTITLE17=Saavuthan
TTITLE18=Pojalleni kun h‰n on  kuusitoista
TTITLE19=Yˆllinen uinti
TTITLE20=Ei sanaakaan
TTITLE21=Tahdon takaisin bahiaan
TTITLE22=Kun h‰m‰rt‰‰
TTITLE23=Viel‰ kerran
TTITLE24=Aristokatit
TTITLE25=Sateenkaaren tuolla puolen
EXTD=
EXTT0=
EXTT1=
EXTT2=
EXTT3=
EXTT4=
EXTT5=
EXTT6=
EXTT7=
EXTT8=
EXTT9=
EXTT10=
EXTT11=
EXTT12=
EXTT13=
EXTT14=
EXTT15=
EXTT16=
EXTT17=
EXTT18=
EXTT19=
EXTT20=
EXTT21=
EXTT22=
EXTT23=
EXTT24=
EXTT25=
PLAYORDER=
